<mxfile host="app.diagrams.net" agent="Mozilla/5.0 (Windows NT 10.0; Win64; x64) AppleWebKit/537.36 (KHTML, like Gecko) Chrome/131.0.0.0 Safari/537.36" version="25.0.3">
  <diagram name="第 1 页" id="4ftaA4U9SKVbjKstfATW">
    <mxGraphModel dx="1339" dy="558" grid="0" gridSize="10" guides="1" tooltips="1" connect="1" arrows="1" fold="1" page="0" pageScale="1" pageWidth="827" pageHeight="1169" math="0" shadow="0">
      <root>
        <mxCell id="0" />
        <mxCell id="1" parent="0" />
        <mxCell id="mpxvXN8oTA27TB1QrNV7-6" value="" style="rounded=0;whiteSpace=wrap;html=1;" vertex="1" parent="1">
          <mxGeometry x="100" y="210" width="60" height="60" as="geometry" />
        </mxCell>
        <mxCell id="mpxvXN8oTA27TB1QrNV7-8" value="" style="rounded=0;whiteSpace=wrap;html=1;" vertex="1" parent="1">
          <mxGeometry x="160" y="210" width="60" height="60" as="geometry" />
        </mxCell>
        <mxCell id="mpxvXN8oTA27TB1QrNV7-9" value="" style="rounded=0;whiteSpace=wrap;html=1;" vertex="1" parent="1">
          <mxGeometry x="220" y="210" width="60" height="60" as="geometry" />
        </mxCell>
        <mxCell id="mpxvXN8oTA27TB1QrNV7-10" value="" style="rounded=0;whiteSpace=wrap;html=1;" vertex="1" parent="1">
          <mxGeometry x="520" y="210" width="60" height="60" as="geometry" />
        </mxCell>
        <mxCell id="mpxvXN8oTA27TB1QrNV7-12" value="" style="rounded=0;whiteSpace=wrap;html=1;" vertex="1" parent="1">
          <mxGeometry x="400" y="210" width="60" height="60" as="geometry" />
        </mxCell>
        <mxCell id="mpxvXN8oTA27TB1QrNV7-13" value="" style="rounded=0;whiteSpace=wrap;html=1;" vertex="1" parent="1">
          <mxGeometry x="460" y="210" width="60" height="60" as="geometry" />
        </mxCell>
        <mxCell id="mpxvXN8oTA27TB1QrNV7-14" value="" style="endArrow=none;dashed=1;html=1;dashPattern=1 3;strokeWidth=2;rounded=0;" edge="1" parent="1">
          <mxGeometry width="50" height="50" relative="1" as="geometry">
            <mxPoint x="300" y="239.71" as="sourcePoint" />
            <mxPoint x="360" y="239.71" as="targetPoint" />
          </mxGeometry>
        </mxCell>
        <mxCell id="mpxvXN8oTA27TB1QrNV7-16" value="head" style="text;html=1;align=center;verticalAlign=middle;whiteSpace=wrap;rounded=0;" vertex="1" parent="1">
          <mxGeometry x="60" y="170" width="60" height="30" as="geometry" />
        </mxCell>
        <mxCell id="mpxvXN8oTA27TB1QrNV7-17" value="tail" style="text;html=1;align=center;verticalAlign=middle;whiteSpace=wrap;rounded=0;" vertex="1" parent="1">
          <mxGeometry x="570" y="170" width="60" height="30" as="geometry" />
        </mxCell>
        <mxCell id="mpxvXN8oTA27TB1QrNV7-18" value="" style="endArrow=classic;html=1;rounded=0;" edge="1" parent="1">
          <mxGeometry width="50" height="50" relative="1" as="geometry">
            <mxPoint x="249.71" y="160" as="sourcePoint" />
            <mxPoint x="249.71" y="200" as="targetPoint" />
          </mxGeometry>
        </mxCell>
        <mxCell id="mpxvXN8oTA27TB1QrNV7-19" value="init_position" style="text;html=1;align=center;verticalAlign=middle;whiteSpace=wrap;rounded=0;" vertex="1" parent="1">
          <mxGeometry x="220" y="130" width="60" height="30" as="geometry" />
        </mxCell>
        <mxCell id="mpxvXN8oTA27TB1QrNV7-20" value="" style="endArrow=classic;html=1;rounded=0;" edge="1" parent="1">
          <mxGeometry width="50" height="50" relative="1" as="geometry">
            <mxPoint x="270" y="180" as="sourcePoint" />
            <mxPoint x="404" y="180" as="targetPoint" />
          </mxGeometry>
        </mxCell>
        <mxCell id="mpxvXN8oTA27TB1QrNV7-21" value="0" style="text;html=1;align=center;verticalAlign=middle;whiteSpace=wrap;rounded=0;" vertex="1" parent="1">
          <mxGeometry x="100" y="270" width="60" height="30" as="geometry" />
        </mxCell>
        <mxCell id="mpxvXN8oTA27TB1QrNV7-22" value="1" style="text;html=1;align=center;verticalAlign=middle;whiteSpace=wrap;rounded=0;" vertex="1" parent="1">
          <mxGeometry x="160" y="270" width="60" height="30" as="geometry" />
        </mxCell>
        <mxCell id="mpxvXN8oTA27TB1QrNV7-23" value="2" style="text;html=1;align=center;verticalAlign=middle;whiteSpace=wrap;rounded=0;" vertex="1" parent="1">
          <mxGeometry x="220" y="270" width="60" height="30" as="geometry" />
        </mxCell>
        <mxCell id="mpxvXN8oTA27TB1QrNV7-24" value="n-1" style="text;html=1;align=center;verticalAlign=middle;whiteSpace=wrap;rounded=0;" vertex="1" parent="1">
          <mxGeometry x="520" y="270" width="60" height="30" as="geometry" />
        </mxCell>
        <mxCell id="mpxvXN8oTA27TB1QrNV7-25" value="n-2" style="text;html=1;align=center;verticalAlign=middle;whiteSpace=wrap;rounded=0;" vertex="1" parent="1">
          <mxGeometry x="460" y="270" width="60" height="30" as="geometry" />
        </mxCell>
        <mxCell id="mpxvXN8oTA27TB1QrNV7-26" value="n-3" style="text;html=1;align=center;verticalAlign=middle;whiteSpace=wrap;rounded=0;" vertex="1" parent="1">
          <mxGeometry x="400" y="270" width="60" height="30" as="geometry" />
        </mxCell>
        <mxCell id="mpxvXN8oTA27TB1QrNV7-27" value="initial direction" style="text;html=1;align=center;verticalAlign=middle;whiteSpace=wrap;rounded=0;" vertex="1" parent="1">
          <mxGeometry x="262" y="144" width="176" height="30" as="geometry" />
        </mxCell>
        <mxCell id="mpxvXN8oTA27TB1QrNV7-28" value="" style="endArrow=classic;html=1;rounded=0;" edge="1" parent="1">
          <mxGeometry width="50" height="50" relative="1" as="geometry">
            <mxPoint x="225" y="306" as="sourcePoint" />
            <mxPoint x="100" y="306" as="targetPoint" />
          </mxGeometry>
        </mxCell>
        <mxCell id="mpxvXN8oTA27TB1QrNV7-29" value="jumping to the init_position from tail&amp;nbsp;" style="text;html=1;align=center;verticalAlign=middle;whiteSpace=wrap;rounded=0;" vertex="1" parent="1">
          <mxGeometry x="308" y="366" width="319.61" height="30" as="geometry" />
        </mxCell>
        <mxCell id="mpxvXN8oTA27TB1QrNV7-30" value="" style="html=1;shadow=0;dashed=0;align=center;verticalAlign=middle;shape=mxgraph.arrows2.jumpInArrow;dy=15;dx=38;arrowHead=55;rotation=-157;" vertex="1" parent="1">
          <mxGeometry x="278.61" y="239.19" width="255.04" height="132.89" as="geometry" />
        </mxCell>
        <mxCell id="mpxvXN8oTA27TB1QrNV7-31" value="and then go to the head" style="text;html=1;align=center;verticalAlign=middle;whiteSpace=wrap;rounded=0;" vertex="1" parent="1">
          <mxGeometry x="103" y="325" width="166" height="30" as="geometry" />
        </mxCell>
        <mxCell id="mpxvXN8oTA27TB1QrNV7-32" value="&lt;h1 style=&quot;margin-top: 0px;&quot;&gt;SCAN&lt;/h1&gt;" style="text;html=1;whiteSpace=wrap;overflow=hidden;rounded=0;" vertex="1" parent="1">
          <mxGeometry x="296" y="65" width="121" height="49" as="geometry" />
        </mxCell>
        <mxCell id="mpxvXN8oTA27TB1QrNV7-33" value="copyright(c)&amp;nbsp; Cao Kailun 22221119" style="text;html=1;align=center;verticalAlign=middle;whiteSpace=wrap;rounded=0;" vertex="1" parent="1">
          <mxGeometry x="494" y="433" width="220" height="30" as="geometry" />
        </mxCell>
        <mxCell id="mpxvXN8oTA27TB1QrNV7-60" value="" style="rounded=0;whiteSpace=wrap;html=1;" vertex="1" parent="1">
          <mxGeometry x="73" y="914" width="60" height="60" as="geometry" />
        </mxCell>
        <mxCell id="mpxvXN8oTA27TB1QrNV7-61" value="" style="rounded=0;whiteSpace=wrap;html=1;" vertex="1" parent="1">
          <mxGeometry x="133" y="914" width="60" height="60" as="geometry" />
        </mxCell>
        <mxCell id="mpxvXN8oTA27TB1QrNV7-62" value="" style="rounded=0;whiteSpace=wrap;html=1;" vertex="1" parent="1">
          <mxGeometry x="193" y="914" width="60" height="60" as="geometry" />
        </mxCell>
        <mxCell id="mpxvXN8oTA27TB1QrNV7-63" value="" style="rounded=0;whiteSpace=wrap;html=1;" vertex="1" parent="1">
          <mxGeometry x="493" y="914" width="60" height="60" as="geometry" />
        </mxCell>
        <mxCell id="mpxvXN8oTA27TB1QrNV7-64" value="" style="rounded=0;whiteSpace=wrap;html=1;" vertex="1" parent="1">
          <mxGeometry x="373" y="914" width="60" height="60" as="geometry" />
        </mxCell>
        <mxCell id="mpxvXN8oTA27TB1QrNV7-65" value="" style="rounded=0;whiteSpace=wrap;html=1;" vertex="1" parent="1">
          <mxGeometry x="433" y="914" width="60" height="60" as="geometry" />
        </mxCell>
        <mxCell id="mpxvXN8oTA27TB1QrNV7-66" value="" style="endArrow=none;dashed=1;html=1;dashPattern=1 3;strokeWidth=2;rounded=0;" edge="1" parent="1">
          <mxGeometry width="50" height="50" relative="1" as="geometry">
            <mxPoint x="273" y="943.71" as="sourcePoint" />
            <mxPoint x="333" y="943.71" as="targetPoint" />
          </mxGeometry>
        </mxCell>
        <mxCell id="mpxvXN8oTA27TB1QrNV7-67" value="head" style="text;html=1;align=center;verticalAlign=middle;whiteSpace=wrap;rounded=0;" vertex="1" parent="1">
          <mxGeometry x="33" y="874" width="60" height="30" as="geometry" />
        </mxCell>
        <mxCell id="mpxvXN8oTA27TB1QrNV7-68" value="tail" style="text;html=1;align=center;verticalAlign=middle;whiteSpace=wrap;rounded=0;" vertex="1" parent="1">
          <mxGeometry x="543" y="874" width="60" height="30" as="geometry" />
        </mxCell>
        <mxCell id="mpxvXN8oTA27TB1QrNV7-69" value="" style="endArrow=classic;html=1;rounded=0;" edge="1" parent="1">
          <mxGeometry width="50" height="50" relative="1" as="geometry">
            <mxPoint x="222.71000000000004" y="864" as="sourcePoint" />
            <mxPoint x="222.71000000000004" y="904" as="targetPoint" />
          </mxGeometry>
        </mxCell>
        <mxCell id="mpxvXN8oTA27TB1QrNV7-70" value="init_position" style="text;html=1;align=center;verticalAlign=middle;whiteSpace=wrap;rounded=0;" vertex="1" parent="1">
          <mxGeometry x="193" y="834" width="60" height="30" as="geometry" />
        </mxCell>
        <mxCell id="mpxvXN8oTA27TB1QrNV7-71" value="" style="endArrow=classic;html=1;rounded=0;" edge="1" parent="1">
          <mxGeometry width="50" height="50" relative="1" as="geometry">
            <mxPoint x="243" y="884" as="sourcePoint" />
            <mxPoint x="377" y="884" as="targetPoint" />
          </mxGeometry>
        </mxCell>
        <mxCell id="mpxvXN8oTA27TB1QrNV7-72" value="0" style="text;html=1;align=center;verticalAlign=middle;whiteSpace=wrap;rounded=0;" vertex="1" parent="1">
          <mxGeometry x="73" y="974" width="60" height="30" as="geometry" />
        </mxCell>
        <mxCell id="mpxvXN8oTA27TB1QrNV7-73" value="1" style="text;html=1;align=center;verticalAlign=middle;whiteSpace=wrap;rounded=0;" vertex="1" parent="1">
          <mxGeometry x="133" y="974" width="60" height="30" as="geometry" />
        </mxCell>
        <mxCell id="mpxvXN8oTA27TB1QrNV7-74" value="2" style="text;html=1;align=center;verticalAlign=middle;whiteSpace=wrap;rounded=0;" vertex="1" parent="1">
          <mxGeometry x="193" y="974" width="60" height="30" as="geometry" />
        </mxCell>
        <mxCell id="mpxvXN8oTA27TB1QrNV7-75" value="n-1" style="text;html=1;align=center;verticalAlign=middle;whiteSpace=wrap;rounded=0;" vertex="1" parent="1">
          <mxGeometry x="493" y="974" width="60" height="30" as="geometry" />
        </mxCell>
        <mxCell id="mpxvXN8oTA27TB1QrNV7-76" value="n-2" style="text;html=1;align=center;verticalAlign=middle;whiteSpace=wrap;rounded=0;" vertex="1" parent="1">
          <mxGeometry x="433" y="974" width="60" height="30" as="geometry" />
        </mxCell>
        <mxCell id="mpxvXN8oTA27TB1QrNV7-77" value="n-3" style="text;html=1;align=center;verticalAlign=middle;whiteSpace=wrap;rounded=0;" vertex="1" parent="1">
          <mxGeometry x="373" y="974" width="60" height="30" as="geometry" />
        </mxCell>
        <mxCell id="mpxvXN8oTA27TB1QrNV7-78" value="initial direction" style="text;html=1;align=center;verticalAlign=middle;whiteSpace=wrap;rounded=0;" vertex="1" parent="1">
          <mxGeometry x="235" y="848" width="176" height="30" as="geometry" />
        </mxCell>
        <mxCell id="mpxvXN8oTA27TB1QrNV7-80" value="jumping to the head from tail&amp;nbsp;" style="text;html=1;align=center;verticalAlign=middle;whiteSpace=wrap;rounded=0;" vertex="1" parent="1">
          <mxGeometry x="323" y="1102" width="319.61" height="30" as="geometry" />
        </mxCell>
        <mxCell id="mpxvXN8oTA27TB1QrNV7-81" value="" style="html=1;shadow=0;dashed=0;align=center;verticalAlign=middle;shape=mxgraph.arrows2.jumpInArrow;dy=15;dx=38;arrowHead=55;rotation=-157;" vertex="1" parent="1">
          <mxGeometry x="39" y="904" width="466" height="222.89" as="geometry" />
        </mxCell>
        <mxCell id="mpxvXN8oTA27TB1QrNV7-82" value="and then go to the tail in the same direction" style="text;html=1;align=center;verticalAlign=middle;whiteSpace=wrap;rounded=0;" vertex="1" parent="1">
          <mxGeometry x="162.84" y="1021" width="270.16" height="30" as="geometry" />
        </mxCell>
        <mxCell id="mpxvXN8oTA27TB1QrNV7-83" value="&lt;h1 style=&quot;margin-top: 0px;&quot;&gt;CSCAN&lt;/h1&gt;" style="text;html=1;whiteSpace=wrap;overflow=hidden;rounded=0;" vertex="1" parent="1">
          <mxGeometry x="296" y="770" width="121" height="49" as="geometry" />
        </mxCell>
        <mxCell id="mpxvXN8oTA27TB1QrNV7-84" value="copyright(c)&amp;nbsp; Cao Kailun 22221119" style="text;html=1;align=center;verticalAlign=middle;whiteSpace=wrap;rounded=0;" vertex="1" parent="1">
          <mxGeometry x="494" y="1148" width="220" height="30" as="geometry" />
        </mxCell>
        <mxCell id="mpxvXN8oTA27TB1QrNV7-87" value="" style="endArrow=classic;html=1;rounded=0;" edge="1" parent="1">
          <mxGeometry width="50" height="50" relative="1" as="geometry">
            <mxPoint x="133" y="1015.1" as="sourcePoint" />
            <mxPoint x="364" y="1015.1" as="targetPoint" />
          </mxGeometry>
        </mxCell>
        <mxCell id="mpxvXN8oTA27TB1QrNV7-109" value="&lt;h1 style=&quot;margin-top: 0px;&quot;&gt;FSCAN&lt;/h1&gt;" style="text;html=1;whiteSpace=wrap;overflow=hidden;rounded=0;" vertex="1" parent="1">
          <mxGeometry x="269" y="1379" width="121" height="49" as="geometry" />
        </mxCell>
        <mxCell id="mpxvXN8oTA27TB1QrNV7-110" value="copyright(c)&amp;nbsp; Cao Kailun 22221119" style="text;html=1;align=center;verticalAlign=middle;whiteSpace=wrap;rounded=0;" vertex="1" parent="1">
          <mxGeometry x="471" y="1846" width="220" height="30" as="geometry" />
        </mxCell>
        <mxCell id="mpxvXN8oTA27TB1QrNV7-112" value="" style="whiteSpace=wrap;html=1;aspect=fixed;" vertex="1" parent="1">
          <mxGeometry x="1" y="1496" width="80" height="80" as="geometry" />
        </mxCell>
        <mxCell id="mpxvXN8oTA27TB1QrNV7-113" value="" style="whiteSpace=wrap;html=1;aspect=fixed;" vertex="1" parent="1">
          <mxGeometry x="81" y="1496" width="80" height="80" as="geometry" />
        </mxCell>
        <mxCell id="mpxvXN8oTA27TB1QrNV7-114" value="" style="whiteSpace=wrap;html=1;aspect=fixed;" vertex="1" parent="1">
          <mxGeometry x="160" y="1496" width="80" height="80" as="geometry" />
        </mxCell>
        <mxCell id="mpxvXN8oTA27TB1QrNV7-115" value="" style="whiteSpace=wrap;html=1;aspect=fixed;" vertex="1" parent="1">
          <mxGeometry x="240" y="1496" width="80" height="80" as="geometry" />
        </mxCell>
        <mxCell id="mpxvXN8oTA27TB1QrNV7-116" value="" style="whiteSpace=wrap;html=1;aspect=fixed;" vertex="1" parent="1">
          <mxGeometry x="447" y="1496" width="80" height="80" as="geometry" />
        </mxCell>
        <mxCell id="mpxvXN8oTA27TB1QrNV7-117" value="" style="whiteSpace=wrap;html=1;aspect=fixed;" vertex="1" parent="1">
          <mxGeometry x="527" y="1496" width="80" height="80" as="geometry" />
        </mxCell>
        <mxCell id="mpxvXN8oTA27TB1QrNV7-120" value="" style="whiteSpace=wrap;html=1;aspect=fixed;" vertex="1" parent="1">
          <mxGeometry x="1" y="1631" width="80" height="80" as="geometry" />
        </mxCell>
        <mxCell id="mpxvXN8oTA27TB1QrNV7-121" value="" style="whiteSpace=wrap;html=1;aspect=fixed;" vertex="1" parent="1">
          <mxGeometry x="81" y="1631" width="80" height="80" as="geometry" />
        </mxCell>
        <mxCell id="mpxvXN8oTA27TB1QrNV7-122" value="" style="whiteSpace=wrap;html=1;aspect=fixed;" vertex="1" parent="1">
          <mxGeometry x="160" y="1631" width="80" height="80" as="geometry" />
        </mxCell>
        <mxCell id="mpxvXN8oTA27TB1QrNV7-123" value="" style="whiteSpace=wrap;html=1;aspect=fixed;" vertex="1" parent="1">
          <mxGeometry x="240" y="1631" width="80" height="80" as="geometry" />
        </mxCell>
        <mxCell id="mpxvXN8oTA27TB1QrNV7-124" value="" style="whiteSpace=wrap;html=1;aspect=fixed;" vertex="1" parent="1">
          <mxGeometry x="447" y="1631" width="80" height="80" as="geometry" />
        </mxCell>
        <mxCell id="mpxvXN8oTA27TB1QrNV7-125" value="" style="whiteSpace=wrap;html=1;aspect=fixed;" vertex="1" parent="1">
          <mxGeometry x="527" y="1631" width="80" height="80" as="geometry" />
        </mxCell>
        <mxCell id="mpxvXN8oTA27TB1QrNV7-126" value="Process Queue" style="text;html=1;align=center;verticalAlign=middle;whiteSpace=wrap;rounded=0;" vertex="1" parent="1">
          <mxGeometry x="-149" y="1521" width="118" height="30" as="geometry" />
        </mxCell>
        <mxCell id="mpxvXN8oTA27TB1QrNV7-127" value="Request Queue" style="text;html=1;align=center;verticalAlign=middle;whiteSpace=wrap;rounded=0;" vertex="1" parent="1">
          <mxGeometry x="-144.5" y="1656" width="109" height="30" as="geometry" />
        </mxCell>
        <mxCell id="mpxvXN8oTA27TB1QrNV7-129" value="" style="endArrow=none;dashed=1;html=1;dashPattern=1 3;strokeWidth=2;rounded=0;" edge="1" parent="1">
          <mxGeometry width="50" height="50" relative="1" as="geometry">
            <mxPoint x="341" y="1532" as="sourcePoint" />
            <mxPoint x="422" y="1532" as="targetPoint" />
          </mxGeometry>
        </mxCell>
        <mxCell id="mpxvXN8oTA27TB1QrNV7-130" value="" style="endArrow=none;dashed=1;html=1;dashPattern=1 3;strokeWidth=2;rounded=0;" edge="1" parent="1">
          <mxGeometry width="50" height="50" relative="1" as="geometry">
            <mxPoint x="343" y="1667" as="sourcePoint" />
            <mxPoint x="424" y="1667" as="targetPoint" />
          </mxGeometry>
        </mxCell>
        <mxCell id="mpxvXN8oTA27TB1QrNV7-131" value="In each queue, the shceduling algorithm is simple SCAN" style="text;html=1;align=center;verticalAlign=middle;whiteSpace=wrap;rounded=0;" vertex="1" parent="1">
          <mxGeometry x="411" y="1419" width="181.5" height="57" as="geometry" />
        </mxCell>
        <mxCell id="mpxvXN8oTA27TB1QrNV7-132" value="Init_position" style="text;html=1;align=center;verticalAlign=middle;whiteSpace=wrap;rounded=0;" vertex="1" parent="1">
          <mxGeometry x="156" y="1525" width="93" height="30" as="geometry" />
        </mxCell>
        <mxCell id="mpxvXN8oTA27TB1QrNV7-133" value="" style="endArrow=classic;html=1;rounded=0;" edge="1" parent="1">
          <mxGeometry width="50" height="50" relative="1" as="geometry">
            <mxPoint x="200" y="1437" as="sourcePoint" />
            <mxPoint x="199.62" y="1476" as="targetPoint" />
          </mxGeometry>
        </mxCell>
        <mxCell id="mpxvXN8oTA27TB1QrNV7-134" value="head" style="text;html=1;align=center;verticalAlign=middle;whiteSpace=wrap;rounded=0;" vertex="1" parent="1">
          <mxGeometry x="-42" y="1438" width="60" height="30" as="geometry" />
        </mxCell>
        <mxCell id="mpxvXN8oTA27TB1QrNV7-135" value="head" style="text;html=1;align=center;verticalAlign=middle;whiteSpace=wrap;rounded=0;" vertex="1" parent="1">
          <mxGeometry x="-42" y="1730" width="60" height="30" as="geometry" />
        </mxCell>
        <mxCell id="mpxvXN8oTA27TB1QrNV7-136" value="tail" style="text;html=1;align=center;verticalAlign=middle;whiteSpace=wrap;rounded=0;" vertex="1" parent="1">
          <mxGeometry x="623" y="1654" width="60" height="30" as="geometry" />
        </mxCell>
        <mxCell id="mpxvXN8oTA27TB1QrNV7-137" value="tail" style="text;html=1;align=center;verticalAlign=middle;whiteSpace=wrap;rounded=0;" vertex="1" parent="1">
          <mxGeometry x="623" y="1521" width="60" height="30" as="geometry" />
        </mxCell>
      </root>
    </mxGraphModel>
  </diagram>
</mxfile>
